<?xml version="1.0" encoding="UTF-8"?><!DOCTYPE svg PUBLIC "-//W3C//DTD SVG 1.1//EN" "http://www.w3.org/Graphics/SVG/1.1/DTD/svg11.dtd"><svg xmlns="http://www.w3.org/2000/svg" xmlns:xlink="http://www.w3.org/1999/xlink"><defs><clipPath id="a"><path transform="translate(.741 .094)" d="M0 0h28v22H0z"/></clipPath></defs><symbol id="icon-academy"><path d="M13.754.044h-.1L.21 1.444v24.7l13.445 8 13.346-8v-24.7L13.754.044Zm11.354 12.1-11.454-6.8v-.1h-.1l-.099-.1v.1l-11.354 6.9v-9l11.454-1.2 11.553 1.2v9Zm-11.553-5.3 11.453 6.7-4.482 2.6-7.07-4.2v1.4l5.875 3.5-.896.5-4.98-3v1.4l3.785 2.3-.797.5-2.988-1.8v1.4l1.892 1.1-1.792 1.1-11.354-6.7 11.354-6.8ZM2.1 15.144l11.354 6.8v1l-7.868-4.7v1.4l7.968 4.8v1.1l-7.968-4.7v1.4l7.968 4.8 8.067-4.9v-5.2l3.386-2v10l-11.453 6.9-11.454-6.8v-9.9Z"/></symbol><symbol id="icon-order-cart"><path d="M19.227 7.238h-3.382L12.56.402C12.367 0 11.98-.1 11.594.101c-.386.2-.483.603-.29 1.005L14.3 7.238H5.508l2.995-6.132c.194-.402 0-.804-.29-1.005-.386-.202-.772 0-.966.301L3.961 7.238H.773A.777.777 0 0 0 0 8.042c0 .402.29.805.773.805h.193l.87 3.015c-.193.101-.29.302-.29.604 0 .402.29.703.676.703L3.865 19h12.27l1.643-5.83c.386 0 .676-.302.676-.704 0-.201-.096-.503-.29-.604l.87-3.015h.193A.777.777 0 0 0 20 8.042a.777.777 0 0 0-.773-.804ZM14.88 17.392H4.831l-1.16-4.323h12.464L14.88 17.39Zm1.546-5.831H3.188l-.773-2.815h14.783l-.773 2.815Z"/></symbol><symbol id="icon-tg"><path fill-rule="evenodd" clip-rule="evenodd" d="M24.202 3.247c.178.15.264.382.226.612l-2.626 15.757a.657.657 0 0 1-1.012.438l-7.878-5.252a.657.657 0 0 1-.149-.957l2.61-3.263-4.359 2.907a.656.656 0 0 1-.658.04l-5.252-2.625a.656.656 0 0 1 .073-1.206L23.56 3.133a.656.656 0 0 1 .642.114Zm-17.135 7.17 3.536 1.768 7.561-5.041a.657.657 0 0 1 .877.956l-4.805 6.007 6.438 4.291 2.275-13.653-15.882 5.672Z"/></symbol><symbol id="icon-vk"><g clip-path="url(#a)"><path d="M1.741 5.433c0-.855.515-1.316 1.545-1.383l3.97.025a.52.52 0 0 1 .533.377c.409 1.258.866 2.343 1.372 3.257.506.914 1.168 1.966 1.985 3.156.071.151.186.226.346.226.125 0 .222-.058.293-.175l.08-.277.027-4.35c0-.303-.075-.504-.226-.604-.151-.1-.431-.176-.84-.227-.32-.05-.48-.234-.48-.553 0-.067.01-.117.027-.15.373-1.09 1.44-1.635 3.198-1.635l1.492-.026c.675 0 1.234.16 1.678.478.444.319.666.822.666 1.51v5.708a.63.63 0 0 0 .347.126c.266 0 .497-.151.692-.453 1.954-2.582 3.011-4.309 3.17-5.18 0-.017.019-.06.054-.126.124-.252.329-.47.613-.654.284-.185.533-.31.746-.377a.555.555 0 0 1 .24-.05h4.13l.266.024c.355 0 .63.16.826.478.07.1.12.21.146.327.027.117.045.235.054.352.009.118.013.185.013.201v.176c-.124.688-.44 1.421-.946 2.2-.506.78-1.15 1.623-1.931 2.528-.782.906-1.27 1.5-1.466 1.786-.16.2-.24.385-.24.553 0 .134.071.285.213.453l3.89 4.627c.213.268.32.562.32.88 0 .386-.16.704-.48.956-.32.251-.701.394-1.145.427l-.453.025h-4.05a.861.861 0 0 0-.106.013.864.864 0 0 1-.107.012c-.39 0-.755-.159-1.092-.477-.125-.134-.96-1.124-2.505-2.968a1.385 1.385 0 0 0-.373-.327c-.07.268-.164.654-.28 1.157-.115.503-.2.864-.253 1.082l-.08.427c-.177.587-.55.939-1.119 1.056l-.373.025h-2.61c-1.475 0-2.945-.637-4.41-1.91-1.466-1.275-2.784-2.922-3.957-4.942-1.172-2.02-2.264-4.372-3.277-7.054a1.916 1.916 0 0 1-.133-.73Zm16.013 6.514c-.373 0-.71-.097-1.013-.29-.302-.192-.453-.457-.453-.792V5.081c0-.335-.089-.574-.266-.717-.178-.142-.489-.213-.933-.213l-1.518.05c-.764 0-1.341.126-1.732.377.781.352 1.172.922 1.172 1.71v4.426a1.5 1.5 0 0 1-.533 1.044 1.59 1.59 0 0 1-1.066.415c-.532 0-.94-.243-1.225-.73C8.8 9.466 7.77 7.589 7.097 5.81l-.24-.653-3.544-.026c-.231 0-.36.013-.386.038-.027.025-.04.097-.04.214 0 .15.017.31.053.478l.56 1.408c1.491 3.638 3.112 6.505 4.862 8.6 1.75 2.096 3.468 3.144 5.155 3.144h2.665c.106 0 .186-.03.24-.088.053-.059.097-.172.133-.34l.053-.25.506-2.214c.142-.302.267-.503.373-.603a.975.975 0 0 1 .693-.277c.426 0 .861.243 1.305.73l2.265 2.715c.142.218.293.327.453.327h4.396c.533 0 .8-.126.8-.377a.466.466 0 0 0-.08-.252l-3.864-4.551c-.302-.352-.453-.73-.453-1.132 0-.402.142-.788.427-1.157.23-.335.679-.893 1.345-1.672a37.716 37.716 0 0 0 1.745-2.188c.498-.679.826-1.295.986-1.848l.08-.327a.371.371 0 0 1-.027-.164.572.572 0 0 0-.026-.188h-4.183c-.267.1-.48.251-.64.452l-.16.478c-.444 1.157-1.607 2.942-3.49 5.357a1.892 1.892 0 0 1-1.305.503Z"/></g></symbol><symbol id="icon-you"><path d="m18.592 10.887-5.236-3.49a.654.654 0 0 0-1.015.545v6.982a.654.654 0 0 0 1.014.545l5.237-3.49a.654.654 0 0 0 0-1.092Zm-4.942 2.815V9.164l3.404 2.269-3.404 2.269Zm12.48-8.564a2.4 2.4 0 0 0-1.45-1.636c-3.72-1.43-9.688-1.407-9.939-1.407-.25 0-6.218-.022-9.938 1.407a2.4 2.4 0 0 0-1.451 1.636c-.284 1.07-.611 3.033-.611 6.295 0 3.261.327 5.225.61 6.294a2.4 2.4 0 0 0 1.452 1.637c3.72 1.429 9.687 1.407 9.938 1.407h.076c.753 0 6.317-.044 9.862-1.407a2.4 2.4 0 0 0 1.451-1.637c.284-1.069.611-3.033.611-6.294 0-3.262-.327-5.226-.61-6.295ZM24.865 17.4a1.091 1.091 0 0 1-.655.742c-3.49 1.342-9.404 1.32-9.469 1.32-.066 0-5.978.022-9.47-1.32a1.091 1.091 0 0 1-.654-.742c-.261-1.004-.567-2.847-.567-5.967 0-3.12.306-4.964.567-5.968a1.09 1.09 0 0 1 .655-.741c3.49-1.342 9.404-1.32 9.469-1.32.065 0 5.978-.022 9.47 1.32a1.092 1.092 0 0 1 .654.741c.261 1.004.567 2.848.567 5.968s-.306 4.963-.567 5.967Z"/></symbol><symbol id="logo-footer"><path d="M19.22 21.381c-.1-2.685-.5-5.27-.5-7.956 0-2.187.4-4.375-.4-6.464 0-.199.1-.497.1-.696.2-.994-3.3-.497-3.8.497-.3.299-.5.597-.4.995 0 .1.1.199.1.298-.7 3.183-1.6 6.265-2.6 9.348-.4 1.194-.9 2.288-1.3 3.481-.6-1.094-1.2-2.188-1.6-3.381-1.4-3.381-2.6-6.862-4.3-10.144.2-1.492-3.2-1.392-3.9 0-.8 1.69-.7 3.381-.4 5.171.3 1.99.4 3.978.4 6.067 0 3.978.4 7.856.4 11.834-.4.398-.5.895-.1 1.392.2.2.4.398.6.498 1 .696 3.6.099 3.6-1.293 0-4.078-.3-8.155-.4-12.332v-1.193c.1.1.1.298.2.398.6 1.59 1.3 3.182 2.2 4.674.9 1.491 1.3 3.082 1.8 4.674-.2.199-.3.497-.2.696 0 .199.1.298.3.398.6.497 1.8.298 2.5 0 .3-.1.6-.299.8-.398.3-.2.9-.696.7-1.194 0-.099-.1-.198-.1-.298.5-1.293.7-2.585 1-3.878.3-1.393.8-2.785 1.3-4.078.1.597.1 1.194.2 1.89.2 2.585 0 5.072 0 7.558 0 .795.1 1.591.2 2.486.1.298.4 1.79.3 1.89-.8.497-.6 1.093.2 1.292.9.2 2.1-.1 2.8-.696 1.2-1.094.6-2.784.4-4.177-.5-2.386 0-4.972-.1-7.359ZM27.62 22.078c-.1-1.99-.8-3.879-.8-5.868 0-2.287.2-4.574-.2-6.862-.1-.696-4.1.1-3.9.995.3 2.088.2 4.177.2 6.364 0 1.99.5 3.879.7 5.868.3 2.088-.1 4.177.1 6.166.1.994.8 2.685.1 3.58-.4.497 1.5.298 1.6.298.8-.1 1.8-.398 2.3-.994.7-.796.2-2.387.1-3.382-.3-1.989-.1-4.176-.2-6.165ZM43.92 18.796c-2.1-2.785-5.9-.796-8.6-1.492-1.4-.398-1.4-2.287-1.4-3.381 0-1.393-.1-2.685-.3-4.078-.1-1.094 0-2.088.7-2.884.1-.1.9-.298.8-.298.4-.1.7-.1 1.1-.1 1.5-.099 4.6.2 4 2.487-.3.994 3.6.398 3.9-.597 1.2-4.575-7.3-3.68-9.7-3.083-2.2.597-4.6 1.79-4.8 4.376-.1 1.193.3 2.387.3 3.58.1 1.392-.2 2.785.3 4.077 1.1 2.984 5.5 1.591 7.8 1.691 3.8.298 2.7 5.47 2.7 7.856 0 1.293 1.2 3.382.2 4.476-.6.696-2 .696-2.8.795-.8.1-2.2.298-2.7-.497-1-1.392.1-3.78-.1-5.37-.1-.895-4.1-.1-3.9.994.3 2.586-1.4 6.066 2.4 6.564 2.4.298 5.2-.2 7.5-.895 1.2-.398 2.3-.895 3.2-1.79 1-.895.7-2.288.4-3.481-.5-3.083.9-6.464-1-8.95ZM61.32 18.597c-.1-3.78-.7-7.459-.7-11.238 0-1.989-4-1.293-4 .298 0 3.58.5 7.16.7 10.74v.2c-1.9 0-3.9.198-5.9.198.2-4.574-.6-9.149-.4-13.823 0-.596-3.9-.1-3.9.995-.2 4.475.6 8.85.5 13.326-.1 2.088-.2 4.276-.3 6.364 0 1.094.2 2.188.3 3.282.1.995.5 2.288.2 3.282-.2.796 3.6.298 3.9-.696.5-1.79-.2-3.978-.4-5.768-.2-1.69 0-3.48.1-5.171 2-.1 4.1-.299 6.1 0 .1 1.392.2 2.784.3 4.077.1 1.193.2 2.287.2 3.48 0 .995.1 2.487-.2 3.481-.8 2.089 3.1 1.89 3.7.398.7-1.89.5-4.177.4-6.166-.2-2.486-.6-4.873-.6-7.26ZM78.22 22.973c-.9-2.785-2.4-5.171-3.6-7.757 1-1.89 2-3.878 2.9-5.867.8-1.79 1.4-3.78 3.1-5.072.6-.398.6-.895-.3-.995-.9-.1-2.1.2-2.8.696-1.4 1.293-2.4 2.685-3.1 4.376-.9 2.089-1.9 4.077-2.9 6.066-.1.1-.1.299-.2.398-.5.299-.8.796-.6 1.293-.8 1.591-1.6 3.083-2.5 4.575-.3-5.47-1-11.04-1.2-16.509 0-1.293-4-.497-3.9.995.2 6.862 1.2 13.624 1.3 20.486v.1c-.3.298-.2.497.1.596 0 1.79-.1 3.48-.2 5.27-.5.697.5 1.095 1.1 1.095h.1c.7 0 2.6-.299 2.7-1.393.2-2.088.3-4.176.2-6.265 1.6-1.69 2.9-3.58 4.1-5.569.8 1.492 1.5 2.984 2 4.575.9 2.685 2.3 5.27 3.1 7.956.5 1.79 4.5.696 3.9-.995-1-2.784-2.4-5.27-3.3-8.055ZM101.721 18.398c-.2-.795-1.4-.795-2.3-.795v-.995c-.1-2.685-.2-5.37-.4-7.956-.2-2.486-1.6-3.281-4-3.182-2.4.1-5.2.497-7.5 1.392-2.6.995-4.1 2.884-4.6 5.669-.5 2.983.2 6.166.4 9.149.2 3.48.1 6.961.1 10.442 0 .597 3.9 0 3.9-.994v-8.255c0-.795-.1-1.59-.1-2.386 1.4-.597 3.7 0 5.1.1 1.1.099 2.2-.2 3.2-.3 0 2.288.1 4.575.2 6.863 0 1.193.5 3.48-.4 4.475-.4.497 1.5.298 1.6.298.8-.1 1.8-.398 2.3-.994.9-1.094.5-3.78.4-5.072-.1-1.89-.1-3.78-.1-5.669 1.1-.199 2.4-.895 2.2-1.79Zm-14.6-.1c-.1-1.192-.2-2.485-.3-3.679-.2-2.287.1-5.569 2.3-6.961.6-.398 1.7-.298 2.4-.398 1-.199 2-.398 2.8.199 1.2.796.9 3.68.9 4.873 0 1.989.2 3.978.3 5.967-.6.1-1.1.1-1.7.1-2.3-.2-4.6-.597-6.7-.1ZM24.22 6.663c.5-.1 1-.199 1.5-.497l.2-.2c.5-.297 1-.795.7-1.391-.5-1.094-.4-2.188-.4-3.382C26.22.2 25.22 0 24.42 0c-.7.1-2.2.597-2.2 1.492 0 .994-.1 1.989.1 2.983 0 .1-.1.199-.1.398-.1.199 0 .398.1.597v.397c.1.2.2.398.4.498.6.298 1.1.298 1.5.298Z"/></symbol></svg>